<svg width="512" height="512" viewBox="0 0 512 512" fill="none" xmlns="http://www.w3.org/2000/svg">
<g clip-path="url(#clip0_207_870)">
<path d="M301.256 256.01L502.635 54.6532C515.135 42.1527 515.135 21.8855 502.635 9.38605C490.134 -3.11444 469.867 -3.11444 457.368 9.38605L256.01 210.764L54.6533 9.38605C42.1528 -3.11444 21.8856 -3.11444 9.38611 9.38605C-3.11338 21.8865 -3.11438 42.1537 9.38611 54.6532L210.764 256.01L9.38611 457.368C-3.11438 469.868 -3.11438 490.135 9.38611 502.635C21.8866 515.134 42.1538 515.135 54.6533 502.635L256.01 301.256L457.367 502.635C469.867 515.135 490.134 515.135 502.634 502.635C515.134 490.134 515.134 469.867 502.634 457.368L301.256 256.01Z" fill="black"/>
</g>
<defs>
<clipPath id="clip0_207_870">
<rect width="512" height="512" fill="white"/>
</clipPath>
</defs>
</svg>
